<svg width="420" height="420" viewBox="0 0 420 420" fill="none" xmlns="http://www.w3.org/2000/svg">
<rect width="420" height="420" fill="white"/>
<rect x="1" y="1" width="418" height="418" fill="#F9DB31" stroke="#F9DB31" stroke-width="2"/>
<path d="M128.072 237.016C128.072 257.272 141.416 271.48 161.768 271.48C178.76 271.48 190.856 261.688 194.216 246.328H173.96C171.56 251.416 167.048 254.2 161.48 254.2C152.84 254.2 147.176 247.48 147.176 237.016C147.176 226.648 152.84 219.928 161.48 219.928C167.048 219.928 171.56 222.712 173.96 227.8H194.216C190.856 212.44 178.76 202.648 161.768 202.648C141.416 202.648 128.072 216.856 128.072 237.016Z" fill="white"/>
<path d="M230.892 258.436C230.892 250.948 225.24 245.656 218.112 245.656C211.056 245.656 205.332 250.948 205.332 258.436C205.332 265.96 211.056 271.252 218.112 271.252C225.24 271.252 230.892 265.96 230.892 258.436ZM209.544 258.436C209.544 252.784 213.144 249.256 218.112 249.256C223.08 249.256 226.68 252.784 226.68 258.436C226.68 264.088 223.08 267.688 218.112 267.688C213.144 267.688 209.544 264.088 209.544 258.436ZM251.382 245.944V264.592L239.034 245.944H234.93V271H239.034V252.316L251.382 271H255.486V245.944H251.382ZM277.328 245.944V264.592L264.98 245.944H260.876V271H264.98V252.316L277.328 271H281.432V245.944H277.328ZM300.645 245.944H286.821V271H300.645V267.652H290.925V259.984H299.565V256.636H290.925V249.292H300.645V245.944ZM304.332 258.436C304.332 265.96 310.056 271.216 317.112 271.216C322.332 271.216 326.832 268.624 328.74 263.728H323.808C322.476 266.392 320.1 267.652 317.112 267.652C312.144 267.652 308.544 264.088 308.544 258.436C308.544 252.784 312.144 249.256 317.112 249.256C320.1 249.256 322.476 250.516 323.808 253.18H328.74C326.832 248.284 322.332 245.656 317.112 245.656C310.056 245.656 304.332 250.948 304.332 258.436ZM332.248 249.328H338.944V271H343.048V249.328H349.708V245.98H332.248V249.328Z" fill="white"/>
<path d="M206.7 239H210.804V221.864L218.472 239H221.316L228.948 221.864V239H233.052V213.98H228.66L219.912 233.6L211.128 213.98H206.7V239ZM246.618 213.98H238.446V239H246.618C254.646 239 259.902 234.284 259.902 226.58C259.902 218.84 254.646 213.98 246.618 213.98ZM242.55 235.652V217.328H246.618C252.522 217.328 255.69 220.856 255.69 226.58C255.69 232.268 252.522 235.652 246.618 235.652H242.55Z" fill="white"/>
<path d="M78.368 190.048L84.512 190L91.952 164.752L98.96 190H105.152L115.04 156.64H109.184L102.224 183.664L95.264 156.64H89.12L81.632 183.808L74.72 156.64H68.912L78.368 190.048ZM130.689 167.728C134.769 167.728 137.985 170.32 138.081 174.4H123.441C124.017 170.224 126.993 167.728 130.689 167.728ZM143.073 182.128H137.169C136.161 184.192 134.289 185.824 130.929 185.824C126.897 185.824 123.777 183.184 123.393 178.816H143.601C143.745 177.904 143.793 177.04 143.793 176.128C143.793 168.352 138.465 163.12 130.929 163.12C123.105 163.12 117.729 168.448 117.729 176.752C117.729 185.056 123.345 190.432 130.929 190.432C137.409 190.432 141.585 186.736 143.073 182.128ZM149.178 190H154.65V154.48H149.178V190ZM160.01 176.752C160.01 185.056 165.386 190.432 172.97 190.432C179.45 190.432 183.674 186.832 185.162 181.648H179.258C178.25 184.384 176.234 185.824 172.97 185.824C168.554 185.824 165.626 182.56 165.626 176.752C165.626 170.992 168.554 167.728 172.97 167.728C176.234 167.728 178.346 169.36 179.258 171.904H185.162C183.674 166.336 179.45 163.12 172.97 163.12C165.386 163.12 160.01 168.496 160.01 176.752ZM215.816 176.752C215.816 168.448 209.864 163.12 202.328 163.12C194.792 163.12 188.84 168.448 188.84 176.752C188.84 185.056 194.552 190.432 202.088 190.432C209.672 190.432 215.816 185.056 215.816 176.752ZM194.408 176.752C194.408 170.752 198.104 167.872 202.232 167.872C206.312 167.872 210.2 170.752 210.2 176.752C210.2 182.752 206.168 185.68 202.088 185.68C197.96 185.68 194.408 182.752 194.408 176.752ZM258.713 190H264.137V174.4C264.137 167.008 259.433 163.12 253.241 163.12C249.401 163.12 245.657 165.136 244.025 168.352C242.201 164.896 238.697 163.12 234.521 163.12C231.353 163.12 228.473 164.416 226.697 166.576V163.552H221.225V190H226.697V175.216C226.697 170.368 229.337 167.872 233.369 167.872C237.353 167.872 239.993 170.368 239.993 175.216V190H245.417V175.216C245.417 170.368 248.057 167.872 252.089 167.872C256.073 167.872 258.713 170.368 258.713 175.216V190ZM282.236 167.728C286.316 167.728 289.532 170.32 289.628 174.4H274.988C275.564 170.224 278.54 167.728 282.236 167.728ZM294.62 182.128H288.716C287.708 184.192 285.836 185.824 282.476 185.824C278.444 185.824 275.324 183.184 274.94 178.816H295.148C295.292 177.904 295.34 177.04 295.34 176.128C295.34 168.352 290.012 163.12 282.476 163.12C274.652 163.12 269.276 168.448 269.276 176.752C269.276 185.056 274.892 190.432 282.476 190.432C288.956 190.432 293.132 186.736 294.62 182.128ZM72.464 254.656C72.464 260.032 75.392 262 80.096 262H84.416V257.44H81.056C78.752 257.44 77.984 256.624 77.984 254.656V240.016H84.416V235.552H77.984V228.976H72.464V235.552H69.344V240.016H72.464V254.656ZM114.659 248.752C114.659 240.448 108.707 235.12 101.171 235.12C93.6354 235.12 87.6834 240.448 87.6834 248.752C87.6834 257.056 93.3954 262.432 100.931 262.432C108.515 262.432 114.659 257.056 114.659 248.752ZM93.2514 248.752C93.2514 242.752 96.9474 239.872 101.075 239.872C105.155 239.872 109.043 242.752 109.043 248.752C109.043 254.752 105.011 257.68 100.931 257.68C96.8034 257.68 93.2514 254.752 93.2514 248.752Z" fill="white"/>
<rect x="26" y="32" width="356" height="356" stroke="white" stroke-width="4"/>
</svg>
